<?xml version="1.0" encoding="UTF-8" standalone="no"?>
<!-- Created with Inkscape (http://www.inkscape.org/) -->

<svg
   xmlns:dc="http://purl.org/dc/elements/1.1/"
   xmlns:cc="http://creativecommons.org/ns#"
   xmlns:rdf="http://www.w3.org/1999/02/22-rdf-syntax-ns#"
   xmlns:svg="http://www.w3.org/2000/svg"
   xmlns="http://www.w3.org/2000/svg"
   xmlns:sodipodi="http://sodipodi.sourceforge.net/DTD/sodipodi-0.dtd"
   xmlns:inkscape="http://www.inkscape.org/namespaces/inkscape"
   width="512"
   height="512"
   viewBox="0 0 135.46666 135.46667"
   version="1.1"
   id="svg8"
   inkscape:version="0.92.1 r15371"
   sodipodi:docname="icons.svg">
  <defs
     id="defs2" />
  <sodipodi:namedview
     id="base"
     pagecolor="#c8c8c8"
     bordercolor="#666666"
     borderopacity="1.0"
     inkscape:pageopacity="1"
     inkscape:pageshadow="2"
     inkscape:zoom="0.7"
     inkscape:cx="47.649334"
     inkscape:cy="230.7072"
     inkscape:document-units="mm"
     inkscape:current-layer="layer1"
     showgrid="false"
     units="px"
     inkscape:window-width="1366"
     inkscape:window-height="704"
     inkscape:window-x="0"
     inkscape:window-y="27"
     inkscape:window-maximized="1" />
  <metadata
     id="metadata5">
    <rdf:RDF>
      <cc:Work
         rdf:about="">
        <dc:format>image/svg+xml</dc:format>
        <dc:type
           rdf:resource="http://purl.org/dc/dcmitype/StillImage" />
        <dc:title></dc:title>
      </cc:Work>
    </rdf:RDF>
  </metadata>
  <g
     inkscape:label="Layer 1"
     inkscape:groupmode="layer"
     id="layer1"
     transform="translate(0,-161.53332)">
    <g
       id="g4506"
       transform="matrix(0.82676605,0,0,0.82676605,18.341796,40.790488)"
       style="fill:#00009a;fill-opacity:1;stroke:none">
      <path
         style="fill:#00009a;fill-opacity:1;stroke:none;stroke-width:0.26458332"
         d="m 55.09003,291.67607 c -0.582083,-0.052 -2.348233,-0.33511 -3.924774,-0.62921 -12.865665,-2.40006 -23.480179,-10.11195 -28.958295,-21.03943 -3.796189,-7.57245 -4.853516,-15.96133 -3.098329,-24.58229 1.206286,-5.92491 4.553421,-13.15464 12.433101,-26.85521 14.240184,-24.75971 18.87666,-33.6938 25.264892,-48.68333 1.209352,-2.83765 2.314697,-5.3082 2.456323,-5.4901 0.553696,-0.71116 0.970777,-0.22899 2.059779,2.38125 6.10336,14.62918 12.011905,26.35957 22.372072,44.41587 8.558646,14.91651 9.610624,16.82005 12.045426,21.7961 3.574428,7.30513 4.990765,12.22584 5.407055,18.78542 0.30045,4.73435 -0.78992,10.6946 -2.911206,15.91337 -4.402743,10.83161 -14.749729,19.51008 -27.101817,22.73149 -4.583084,1.19526 -11.052408,1.70173 -16.044227,1.25607 z"
         id="path4542"
         inkscape:connector-curvature="0" />
      <path
         style="fill:#00009a;fill-opacity:1;stroke:none;stroke-width:0.26458332"
         d="M 56.262711,291.58623 C 42.60121,290.58071 30.734625,283.6645 23.799488,272.66567 c -1.321773,-2.09627 -3.175351,-6.248 -3.889083,-8.71094 -2.163823,-7.4669 -1.880603,-15.91483 0.795588,-23.73092 1.327031,-3.87573 5.191858,-11.53796 10.321655,-20.46325 11.272784,-19.61341 14.421796,-25.39385 19.448131,-35.69964 2.774262,-5.68823 6.505508,-14.00061 8.173717,-18.20921 0.880237,-2.22069 1.300657,-2.06676 2.529189,0.92604 3.554441,8.65891 10.055608,22.25342 14.954461,31.27109 1.339172,2.46512 5.476713,9.78746 9.194529,16.27188 11.847573,20.66389 14.155697,25.7234 15.276005,33.48567 1.72511,11.95286 -2.184186,23.49073 -10.847295,32.01458 -8.549039,8.41162 -20.763658,12.70223 -33.493674,11.76526 z"
         id="path4540"
         inkscape:connector-curvature="0" />
      <path
         style="fill:#00009a;fill-opacity:1;stroke:none;stroke-width:0.26458332"
         d="m 54.693155,291.43008 c -13.500422,-1.67453 -24.608082,-8.54463 -31.034512,-19.19488 -4.612373,-7.64389 -6.19915,-17.00596 -4.433197,-26.1561 1.310587,-6.79068 4.167137,-12.85414 14.768467,-31.34828 12.068227,-21.05316 16.647445,-29.94809 22.813916,-44.31505 1.5299,-3.56444 2.698642,-5.95313 2.912761,-5.95313 0.214109,0 1.435007,2.49502 3.042547,6.21771 6.424622,14.87797 11.630421,24.88361 25.191615,48.41875 8.262173,14.33881 10.846234,19.96413 12.275508,26.72292 0.7762,3.67048 0.846,10.57476 0.14277,14.12187 -1.552555,7.83113 -4.81282,13.86779 -10.596926,19.62114 -4.732107,4.70693 -9.526682,7.67135 -15.77405,9.75285 -4.860904,1.61956 -7.449245,2.03802 -13.223483,2.13786 -2.837656,0.0491 -5.576093,0.0375 -6.085416,-0.0257 z"
         id="path4538"
         inkscape:connector-curvature="0" />
      <path
         style="fill:#00009a;fill-opacity:1;stroke:none;stroke-width:0.26458332"
         d="m 55.09003,291.42952 c -10.984465,-1.16777 -21.428069,-6.54411 -27.946312,-14.38667 -5.767093,-6.9388 -8.542681,-14.65026 -8.523229,-23.68021 0.02037,-9.45367 2.32074,-15.75164 11.790169,-32.27916 1.667521,-2.91042 4.639535,-8.08964 6.604479,-11.50938 8.831619,-15.37034 16.572602,-30.85233 21.398141,-42.79635 0.590976,-1.46276 1.022157,-2.18281 1.307113,-2.18281 0.293579,0 0.822889,0.96249 1.709674,3.10885 5.787324,14.00755 11.770561,25.72246 24.290062,47.55885 10.519004,18.34715 13.414202,24.57946 14.626433,31.48542 0.62125,3.53916 0.64065,9.50086 0.0415,12.75915 -2.922843,15.89569 -15.331538,27.9888 -32.121951,31.305 -2.791838,0.5514 -10.429964,0.90925 -13.176109,0.61731 z"
         id="path4536"
         inkscape:connector-curvature="0" />
      <path
         style="fill:#00009a;fill-opacity:1;stroke:none;stroke-width:0.26458332"
         d="m 54.693155,291.30153 c -9.400466,-1.06468 -18.090038,-5.02147 -24.5132,-11.16205 -5.334106,-5.09945 -8.82101,-11.02207 -10.567593,-17.94942 -0.563557,-2.23521 -0.716936,-3.58244 -0.829844,-7.28917 -0.151874,-4.98587 0.09154,-7.44482 1.129098,-11.40615 1.579433,-6.03015 4.064606,-11.0913 13.667917,-27.83522 12.316615,-21.47473 16.835622,-30.21992 23.105873,-44.71458 1.634332,-3.77801 2.831907,-6.21771 3.052088,-6.21771 0.21657,0 1.08752,1.70326 2.164686,4.23333 6.061675,14.2378 13.012443,27.76718 24.195666,47.09583 9.575842,16.55052 12.32528,22.2825 13.8804,28.93759 0.769324,3.29229 0.968484,10.88132 0.375854,14.32179 -3.532467,20.50733 -23.501195,34.49555 -45.660945,31.98576 z"
         id="path4534"
         inkscape:connector-curvature="0" />
      <path
         style="fill:#00009a;fill-opacity:1;stroke:none;stroke-width:0.26458332"
         d="m 55.88378,291.32075 c -13.231979,-1.06902 -25.032495,-7.96233 -31.642215,-18.48389 -4.045138,-6.43917 -5.76212,-13.08017 -5.445355,-21.06172 0.367485,-9.25956 2.599666,-14.73887 14.335666,-35.18958 12.779211,-22.26857 18.720988,-33.82244 24.46579,-47.5741 0.988952,-2.3673 1.941044,-4.28423 2.127877,-4.28423 0.18597,0 0.857239,1.25015 1.49171,2.77812 4.995958,12.03153 11.752894,25.67256 19.134536,38.62917 1.119235,1.96453 4.156326,7.26281 6.749092,11.77396 7.620788,13.25938 10.958729,20.08247 12.29655,25.13541 3.494449,13.19849 0.1016,26.44363 -9.206616,35.94116 -4.771364,4.86841 -9.884309,8.0556 -16.438186,10.24686 -5.320612,1.77892 -12.016449,2.56166 -17.868849,2.08884 z"
         id="path4532"
         inkscape:connector-curvature="0" />
      <path
         style="fill:#00009a;fill-opacity:1;stroke:none;stroke-width:0.26458332"
         d="m 52.980621,290.92516 c -15.446398,-2.49732 -27.382257,-11.92135 -32.248677,-25.46215 -1.634832,-4.54891 -2.346542,-10.90713 -1.783903,-15.93683 0.895985,-8.00963 3.449026,-14.09049 12.608133,-30.0302 14.119206,-24.57183 19.099916,-34.14199 25.405696,-48.81563 1.344511,-3.12869 2.591837,-5.68854 2.771835,-5.68854 0.179996,0 0.626843,0.71438 0.992992,1.5875 6.533597,15.58015 12.532809,27.39631 24.448478,48.15417 11.432968,19.91696 13.489114,24.28891 14.932155,31.74999 0.64113,3.31489 0.6433,10.25804 0.004,13.46042 -1.529711,7.66507 -4.835624,13.85332 -10.345183,19.36489 -5.762098,5.76419 -12.969943,9.58215 -21.244623,11.25319 -3.713969,0.75002 -11.956985,0.94265 -15.541108,0.36319 z"
         id="path4530"
         inkscape:connector-curvature="0" />
      <path
         style="fill:#00009a;fill-opacity:1;stroke:none;stroke-width:0.26458332"
         d="m 54.334965,291.06828 c -10.20032,-1.28637 -18.994744,-5.63671 -25.617825,-12.67238 -8.712237,-9.25497 -11.895216,-21.8965 -8.698095,-34.5454 1.553258,-6.1452 3.889169,-10.9045 14.108914,-28.74614 12.091256,-21.10895 17.830151,-32.31074 23.640347,-46.1438 0.916832,-2.18281 1.798659,-3.96875 1.959615,-3.96875 0.16096,0 1.281163,2.32172 2.489346,5.15938 6.409055,15.05295 11.030103,23.93802 25.938995,49.87395 7.722835,13.43486 10.79578,20.31834 11.929738,26.72292 0.68903,3.89161 0.63973,10.01955 -0.108947,13.5436 -1.586989,7.46998 -4.962535,13.73573 -10.234487,18.99743 -5.804075,5.79279 -13.059092,9.59607 -21.476427,11.25854 -3.212034,0.63439 -10.784993,0.91742 -13.931174,0.52065 z"
         id="path4528"
         inkscape:connector-curvature="0" />
      <path
         style="fill:#00009a;fill-opacity:1;stroke:none;stroke-width:0.26458332"
         d="m 54.693155,291.03695 c -11.235758,-1.27255 -21.585401,-6.80631 -27.932897,-14.9352 -3.621844,-4.6383 -5.780749,-9.18232 -7.15808,-15.06619 -0.703204,-3.00406 -0.711986,-11.95134 -0.01492,-15.21354 1.30003,-6.08412 4.642056,-13.41464 11.700636,-25.66459 14.23417,-24.70298 20.023065,-35.82791 26.055332,-50.07239 1.217102,-2.87404 2.296702,-5.22552 2.399117,-5.22552 0.102415,0 0.507262,0.80367 0.89966,1.78594 1.580155,3.9555 5.92088,13.50874 8.74595,19.24843 3.982223,8.09069 7.910211,15.30881 16.120289,29.62284 13.124815,22.88273 14.937958,27.47428 14.952588,37.86543 0.009,6.21989 -1.078267,10.85953 -3.840469,16.39192 -5.072123,10.15891 -15.377456,17.92993 -27.125532,20.45475 -4.873675,1.04742 -10.146874,1.33531 -14.801672,0.80812 z"
         id="path4526"
         inkscape:connector-curvature="0" />
      <path
         style="fill:#00009a;fill-opacity:1;stroke:none;stroke-width:0.26458332"
         d="m 55.88378,291.05616 c -9.169132,-0.74078 -18.064196,-4.45996 -24.606916,-10.28858 -5.940776,-5.29237 -9.833173,-11.89716 -11.550697,-19.59973 -0.531362,-2.38299 -0.61899,-3.49313 -0.616093,-7.80521 0.0029,-4.27115 0.09503,-5.43862 0.612857,-7.76386 1.628169,-7.31103 3.812863,-11.86131 15.136759,-31.52676 9.965965,-17.30723 16.725394,-30.41433 21.936635,-42.53698 1.518214,-3.53174 2.862043,-6.38746 2.986286,-6.34605 0.124243,0.0414 0.976397,1.85946 1.893676,4.0401 5.874781,13.9661 11.588373,25.08773 23.920991,46.56272 12.649908,22.02749 14.872442,27.63702 14.867232,37.52383 -0.003,5.90277 -1.171389,10.82935 -3.838439,16.18658 -2.074921,4.16783 -4.292338,7.18172 -7.634845,10.37718 -8.446508,8.07491 -20.622542,12.18543 -33.107446,11.17676 z"
         id="path4524"
         inkscape:connector-curvature="0" />
      <path
         style="fill:#00009a;fill-opacity:1;stroke:none;stroke-width:0.26458332"
         d="m 52.742543,290.664 c -13.361264,-2.16052 -24.43148,-9.96883 -30.002084,-21.16178 -4.695715,-9.43505 -4.966868,-20.75612 -0.744077,-31.06637 2.228427,-5.44087 5.121434,-10.86215 13.778031,-25.81904 6.994099,-12.08442 12.557034,-22.55217 16.943384,-31.88229 2.410285,-5.12688 6.178071,-13.7164 6.586363,-15.0151 0.102933,-0.32743 0.2765,-0.59532 0.385701,-0.59532 0.109202,0 0.599398,0.98227 1.089324,2.18282 3.322524,8.14171 9.276664,20.61973 14.281192,29.92891 1.475991,2.74556 5.694367,10.2465 9.374174,16.66875 11.964656,20.88153 14.036875,25.26405 15.404535,32.57889 0.663514,3.54875 0.663514,10.13326 6e-6,13.48415 -1.982783,10.01359 -7.605162,18.38943 -16.231827,24.18107 -3.93414,2.64125 -9.855965,5.07588 -14.970479,6.15481 -3.520503,0.74266 -12.299442,0.94178 -15.894243,0.3605 z"
         id="path4522"
         inkscape:connector-curvature="0" />
      <path
         style="fill:#00009a;fill-opacity:1;stroke:none;stroke-width:0.26458332"
         d="m 54.163988,290.77729 c -6.992209,-0.90002 -13.471654,-3.33766 -19.18229,-7.21657 -4.660276,-3.16546 -9.594718,-8.80903 -12.162282,-13.9101 -2.91851,-5.79832 -4.282956,-13.27199 -3.601595,-19.72756 0.926102,-8.77439 3.103779,-13.77277 15.158372,-34.79271 3.713697,-6.47568 7.884827,-13.85755 9.269177,-16.40417 5.015039,-9.22552 10.8655,-21.32909 14.483624,-29.96406 0.777423,-1.85539 1.493454,-3.37343 1.591175,-3.37343 0.09772,0 0.873686,1.63711 1.724364,3.63802 6.074753,14.28868 12.280418,26.43228 23.019214,45.04531 11.431386,19.81346 13.832279,24.86564 15.248167,32.08661 0.765776,3.90543 0.824796,10.05608 0.129969,13.54441 -3.367667,16.9071 -16.731792,28.83634 -34.823039,31.08416 -2.576176,0.32008 -8.331998,0.31483 -10.854856,-0.01 z"
         id="path4520"
         inkscape:connector-curvature="0" />
      <path
         style="fill:#00009a;fill-opacity:1;stroke:none;stroke-width:0.26458332"
         d="m 54.849124,290.79399 c -16.004976,-1.83432 -28.820325,-11.49314 -33.691262,-25.39281 -1.564105,-4.46332 -1.786816,-5.96793 -1.781934,-12.03854 0.0041,-5.08557 0.06366,-5.8028 0.703159,-8.46667 0.384281,-1.60072 1.086617,-3.97575 1.560748,-5.27783 1.316302,-3.61488 5.284724,-11.36008 10.174467,-19.85758 6.079288,-10.56472 10.991399,-19.29853 13.751273,-24.44998 4.339783,-8.10043 10.750553,-21.67627 13.223864,-28.00366 0.412401,-1.05503 0.826648,-1.91823 0.920552,-1.91823 0.09391,0 0.568097,0.98226 1.053758,2.18281 5.248942,12.9753 11.924432,26.07602 24.28659,47.66272 13.724514,23.96562 15.430321,28.44301 15.077011,39.57403 -0.11143,3.51066 -0.275307,4.91706 -0.829308,7.11722 -2.352304,9.342 -8.332168,17.48296 -16.691347,22.72356 -4.115755,2.58027 -10.239872,4.87975 -15.345832,5.76204 -2.910941,0.503 -9.57117,0.70848 -12.411739,0.38292 z"
         id="path4518"
         inkscape:connector-curvature="0" />
      <path
         style="fill:#00009a;fill-opacity:1;stroke:none;stroke-width:0.26458332"
         d="m 55.88378,290.78413 c -15.938341,-1.24279 -29.824247,-11.37576 -34.61247,-25.25776 -1.608741,-4.66406 -1.898883,-6.53619 -1.885132,-12.16373 0.01016,-4.15904 0.113024,-5.49255 0.595696,-7.72277 1.419764,-6.5601 3.978624,-12.08076 12.301809,-26.54077 13.340614,-23.17686 19.275258,-34.58827 25.096075,-48.25591 1.214503,-2.85173 2.274818,-5.18607 2.356254,-5.18744 0.08144,-0.001 0.782167,1.51557 1.557174,3.37096 2.347068,5.61895 5.121963,11.60781 8.638987,18.64491 4.226692,8.45706 6.757069,13.08854 15.146455,27.72331 7.159802,12.48984 10.711108,19.21012 12.309546,23.29386 3.918626,10.01142 3.752166,20.71158 -0.462528,29.73077 -6.015191,12.87215 -18.60482,21.19778 -33.846973,22.38327 -3.541979,0.27549 -3.417876,0.27581 -7.194893,-0.0187 z"
         id="path4516"
         inkscape:connector-curvature="0" />
      <path
         style="fill:#00009a;fill-opacity:1;stroke:none;stroke-width:0.26458332"
         d="m 52.742543,290.40061 c -13.396012,-2.17294 -24.342911,-9.9393 -29.814722,-21.15228 -2.722713,-5.57945 -3.87378,-11.07202 -3.606371,-17.20861 0.392777,-9.0135 2.795974,-15.17386 12.4891,-32.01458 14.602814,-25.37074 19.514965,-34.82218 26.058261,-50.13854 0.901433,-2.11005 1.700231,-3.93616 1.775105,-4.05801 0.07487,-0.12186 1.176544,2.19986 2.448158,5.15937 6.194237,14.41627 10.836211,23.38751 23.765747,45.93052 8.86569,15.45758 11.73781,21.35411 13.132223,26.96076 2.595946,10.4378 0.914714,20.65702 -4.82986,29.35785 -5.575115,8.44416 -14.690648,14.47087 -25.402158,16.79456 -3.386706,0.7347 -12.470585,0.94396 -16.015483,0.36896 z"
         id="path4514"
         inkscape:connector-curvature="0" />
      <path
         style="fill:#00009a;fill-opacity:1;stroke:none;stroke-width:0.26458332"
         d="m 53.216283,290.40068 c -3.83517,-0.54609 -8.773702,-2.04361 -12.262757,-3.71847 -18.56913,-8.91378 -26.304596,-28.65652 -18.774319,-47.9165 1.696346,-4.33869 4.856749,-10.30833 12.72297,-24.03223 11.816802,-20.61633 18.395663,-33.48696 23.498409,-45.97136 0.639395,-1.56435 1.234067,-2.84427 1.321493,-2.84427 0.08743,0 0.739476,1.39899 1.449002,3.10886 5.34513,12.88115 12.948578,27.70226 24.126921,47.02968 10.034426,17.34959 12.576696,22.69314 14.035513,29.50104 0.912275,4.25733 0.964675,10.77869 0.118406,14.73423 -1.519748,7.10342 -4.484793,12.79174 -9.344072,17.92624 -5.89767,6.2317 -13.501337,10.27671 -22.457819,11.94713 -3.163117,0.58993 -11.042162,0.71857 -14.433747,0.23565 z"
         id="path4512"
         inkscape:connector-curvature="0" />
      <path
         style="fill:#00009a;fill-opacity:1;stroke:none;stroke-width:0.26458332"
         d="M 54.825447,290.50913 C 39.036014,288.85564 25.791631,278.70895 21.22736,264.76921 c -1.420167,-4.33734 -1.818804,-7.41245 -1.646187,-12.69882 0.175786,-5.38345 0.823613,-8.56654 2.714823,-13.33927 1.407025,-3.55082 4.948682,-10.49782 8.389972,-16.45702 15.119865,-26.18273 20.911446,-37.2599 27.078063,-51.79044 1.003154,-2.36375 1.893673,-4.29851 1.978935,-4.29948 0.08526,-9.5e-4 0.7899,1.5163 1.565865,3.37169 2.452901,5.86507 5.376738,12.16904 8.807653,18.98984 4.125978,8.20261 5.951074,11.53446 14.417378,26.32006 11.535155,20.14504 13.827669,25.09299 15.013407,32.40356 0.456721,2.81589 0.508061,8.51084 0.102979,11.42328 -0.875932,6.29772 -4.102068,13.22095 -8.535178,18.31636 -8.609197,9.89537 -22.251041,14.9703 -36.289623,13.50016 z"
         id="path4510"
         inkscape:connector-curvature="0" />
      <path
         style="fill:#00009a;fill-opacity:1;stroke:none;stroke-width:0.26458332"
         d="m 56.208297,290.5163 c -17.676619,-1.24356 -32.291863,-13.32688 -35.978106,-29.74533 -0.786919,-3.5049 -0.834113,-10.63052 -0.09459,-14.28229 1.30779,-6.45793 4.322762,-13.17739 11.280409,-25.14062 2.143792,-3.68611 5.127037,-8.86882 5.863487,-10.18646 0.366,-0.65484 1.681636,-2.97656 2.923635,-5.15937 3.516561,-6.18036 4.576405,-8.14517 8.421562,-15.61242 3.414692,-6.63128 8.645784,-17.92444 10.324536,-22.28914 0.349814,-0.90951 0.696164,-1.6515 0.769665,-1.64887 0.0735,0.003 0.811252,1.63975 1.639446,3.63803 2.224643,5.36765 4.150611,9.56219 7.378091,16.06865 5.207836,10.49876 8.515791,16.5912 15.586937,28.70729 5.143425,8.81303 9.103407,16.05034 10.568204,19.31458 0.489759,1.09141 0.985139,2.10752 1.100846,2.25803 0.565013,0.73495 2.428931,6.10468 3.064571,8.82867 0.634923,2.72092 0.717161,3.60798 0.725979,7.83101 0.0076,3.65221 -0.103071,5.2868 -0.474831,7.01146 -1.732058,8.03528 -5.642441,14.75358 -11.757329,20.19987 -8.279212,7.37396 -19.530154,11.03791 -31.342508,10.20691 z"
         id="path4508"
         inkscape:connector-curvature="0" />
    </g>
  </g>
</svg>
